<?xml version="1.0" standalone="no"?>
<!DOCTYPE svg PUBLIC "-//W3C//DTD SVG 20010904//EN"
 "http://www.w3.org/TR/2001/REC-SVG-20010904/DTD/svg10.dtd">
<svg version="1.0" xmlns="http://www.w3.org/2000/svg"
 width="512.000000pt" height="512.000000pt" viewBox="0 0 512.000000 512.000000"
 preserveAspectRatio="xMidYMid meet">

<g transform="translate(0.000000,512.000000) scale(0.100000,-0.100000)"
fill="#000000" stroke="none">
<path d="M420 4429 c-167 -28 -322 -160 -391 -334 l-24 -60 -3 -1272 c-3
-1396 -5 -1338 57 -1461 59 -117 173 -213 298 -252 34 -10 103 -22 153 -26
l90 -7 0 -60 c0 -89 18 -135 75 -194 73 -75 119 -86 333 -81 163 3 168 4 221
33 88 48 126 114 137 234 l7 71 1187 0 1187 0 7 -71 c11 -120 49 -186 137
-234 53 -29 58 -30 221 -33 214 -5 260 6 333 81 57 59 75 105 75 194 l0 60 90
7 c50 4 119 16 153 26 125 39 239 135 298 252 61 121 59 67 59 1424 0 799 -4
1260 -10 1295 -38 202 -217 376 -420 409 -82 13 -4190 12 -4270 -1z m4321
-190 c79 -37 133 -90 171 -167 l33 -67 0 -1275 0 -1275 -28 -60 c-35 -76 -110
-146 -185 -177 l-57 -23 -2065 -3 c-1249 -1 -2092 1 -2133 7 -126 18 -216 80
-269 189 l-33 67 0 1275 0 1275 26 56 c49 103 140 178 241 198 24 5 988 8
2143 7 l2100 -1 56 -26z m-3551 -3279 c0 -102 -26 -114 -239 -108 -131 3 -133
3 -157 31 -19 22 -24 39 -24 83 l0 54 210 0 210 0 0 -60z m3160 6 c0 -44 -5
-61 -24 -83 -24 -28 -26 -28 -157 -31 -213 -6 -239 6 -239 108 l0 60 210 0
210 0 0 -54z"/>
<path d="M1588 4089 c-532 -47 -990 -401 -1167 -902 -227 -643 54 -1356 657
-1665 128 -66 280 -117 412 -138 153 -24 398 -15 536 20 461 116 826 450 973
891 54 162 66 243 66 435 0 192 -12 273 -66 435 -147 440 -514 778 -969 891
-82 20 -293 47 -340 43 -8 -1 -54 -5 -102 -10z m249 -174 c360 -27 724 -266
911 -600 161 -288 196 -646 92 -957 -103 -306 -318 -553 -607 -698 -375 -187
-847 -155 -1195 81 -194 132 -352 328 -438 542 -244 612 45 1300 653 1551 143
60 358 100 477 90 19 -2 67 -6 107 -9z"/>
<path d="M1578 3731 c-121 -39 -201 -108 -238 -208 -39 -104 -18 -196 67 -293
41 -48 65 -83 76 -113 6 -15 0 -14 -36 8 -158 98 -350 128 -482 76 -128 -51
-248 -220 -276 -387 -14 -88 0 -186 40 -271 39 -81 81 -127 153 -163 50 -24
73 -30 127 -30 78 0 126 20 192 77 50 43 118 88 124 81 2 -2 -16 -42 -40 -90
-114 -228 -96 -436 51 -566 172 -154 415 -186 597 -79 94 55 157 161 157 262
0 70 -23 125 -73 181 -37 41 -99 135 -93 141 1 2 30 -13 62 -32 144 -87 334
-114 459 -65 124 48 245 210 276 368 47 247 -110 487 -320 486 -78 0 -125 -21
-201 -89 -50 -44 -108 -80 -116 -72 -2 2 11 29 29 60 93 154 114 355 52 483
-49 99 -178 197 -314 238 -73 21 -200 20 -273 -3z m256 -171 c66 -25 125 -67
162 -116 56 -73 39 -239 -35 -356 l-30 -47 -56 31 c-43 23 -75 32 -132 37
l-74 6 -23 56 c-24 60 -46 94 -113 177 -47 59 -51 77 -27 128 43 91 200 131
328 84z m-636 -515 c61 -15 175 -66 186 -84 3 -5 -8 -39 -25 -75 -24 -50 -31
-81 -32 -131 l-2 -65 -35 -11 c-53 -17 -131 -64 -182 -109 -68 -59 -91 -65
-147 -38 -38 19 -51 34 -76 83 -24 49 -29 71 -29 130 0 126 86 265 185 301 46
17 82 16 157 -1z m1264 -121 c61 -31 104 -139 94 -236 -13 -124 -104 -253
-196 -278 -50 -13 -120 -6 -199 21 -62 22 -144 67 -139 77 44 82 61 133 67
194 6 70 6 70 43 82 51 18 115 57 174 106 75 63 91 67 156 34z m-663 -3 c211
-108 122 -419 -114 -399 -178 15 -255 242 -123 365 57 54 167 69 237 34z
m-124 -569 c50 -3 75 -9 75 -17 0 -27 73 -154 120 -208 38 -45 50 -66 50 -91
0 -115 -182 -191 -332 -138 -75 27 -143 74 -176 125 -24 36 -27 50 -26 121 1
86 19 146 68 229 l25 44 61 -30 c45 -23 79 -31 135 -35z"/>
<path d="M4209 3981 c-17 -18 -29 -40 -29 -56 0 -16 12 -38 29 -56 l29 -29
202 0 c200 0 201 0 225 25 17 16 25 35 25 60 0 25 -8 44 -25 60 -24 25 -25 25
-225 25 l-202 0 -29 -29z"/>
<path d="M4209 3641 c-17 -18 -29 -40 -29 -56 0 -38 50 -85 90 -85 61 0 104
83 67 131 -35 46 -88 50 -128 10z"/>
<path d="M4554 3646 c-58 -49 -20 -146 57 -146 57 0 95 66 73 125 -8 19 -55
45 -83 45 -11 0 -32 -11 -47 -24z"/>
<path d="M3460 3317 c-52 -26 -60 -89 -18 -134 l21 -23 589 0 589 0 24 25 c42
41 31 105 -22 133 -32 18 -1148 17 -1183 -1z"/>
<path d="M3459 2975 c-51 -28 -59 -86 -16 -132 l20 -23 593 0 593 0 20 26 c29
37 27 85 -5 115 l-26 24 -576 2 c-480 2 -581 0 -603 -12z"/>
<path d="M3472 2639 c-23 -7 -38 -20 -49 -44 -16 -33 -16 -37 0 -70 12 -26 25
-36 56 -45 28 -7 222 -10 600 -8 l559 3 26 24 c36 34 36 88 0 122 l-26 24
-566 2 c-340 1 -580 -2 -600 -8z"/>
<path d="M3447 2286 c-9 -7 -22 -27 -28 -44 -13 -39 8 -84 48 -101 21 -8 182
-11 600 -9 l571 3 26 24 c32 30 34 78 5 115 l-20 26 -592 0 c-477 -1 -595 -3
-610 -14z"/>
<path d="M3440 1935 c-32 -34 -32 -87 -2 -118 l23 -22 572 -3 c314 -1 582 0
594 3 62 15 84 95 38 140 l-24 25 -589 0 -589 0 -23 -25z"/>
<path d="M3444 1596 c-39 -33 -39 -89 0 -122 l27 -24 575 0 c607 0 621 1 638
45 13 35 6 76 -19 100 l-24 25 -585 0 -585 0 -27 -24z"/>
</g>
</svg>
