<?xml version="1.0" standalone="no"?>
<!DOCTYPE svg PUBLIC "-//W3C//DTD SVG 20010904//EN"
 "http://www.w3.org/TR/2001/REC-SVG-20010904/DTD/svg10.dtd">
<svg version="1.0" xmlns="http://www.w3.org/2000/svg"
 width="512.000000pt" height="512.000000pt" viewBox="0 0 512.000000 512.000000"
 preserveAspectRatio="xMidYMid meet">

<g transform="translate(0.000000,512.000000) scale(0.100000,-0.100000)"
fill="#000000" stroke="none">
<path d="M2566 4600 c-33 -5 -93 -19 -135 -30 -218 -60 -356 -208 -417 -448
-88 -346 -19 -775 192 -1194 19 -38 33 -72 31 -75 -8 -8 -184 64 -295 121
-335 172 -424 278 -503 604 -45 184 -68 231 -127 261 -88 44 -145 36 -244 -35
-153 -113 -310 -307 -409 -509 -108 -221 -144 -369 -143 -590 1 -128 5 -164
27 -248 33 -126 77 -206 153 -282 111 -111 273 -173 506 -195 274 -26 615 47
937 201 68 32 126 57 129 54 17 -17 -146 -356 -237 -492 -116 -173 -221 -239
-487 -304 -93 -23 -184 -50 -202 -61 -82 -50 -111 -173 -60 -258 124 -210 454
-452 743 -544 367 -117 731 -70 919 118 212 212 260 661 121 1120 -37 123
-106 293 -158 391 -19 36 -30 65 -25 65 19 0 191 -72 280 -116 262 -131 377
-232 453 -396 18 -40 50 -144 70 -231 42 -175 65 -221 130 -251 92 -44 158
-27 278 72 143 117 286 304 376 493 100 210 136 364 134 579 -1 241 -56 401
-178 524 -75 77 -174 129 -303 162 -346 88 -775 19 -1194 -192 -38 -19 -72
-33 -75 -31 -7 8 61 176 120 292 167 333 284 430 617 510 96 23 169 46 192 61
63 40 98 131 78 202 -24 89 -191 273 -356 391 -96 68 -289 167 -394 201 -168
56 -405 82 -544 60z m351 -186 c208 -43 423 -150 596 -299 80 -68 188 -199
181 -219 -3 -7 -64 -26 -147 -46 -235 -54 -367 -119 -488 -239 -101 -102 -239
-334 -330 -559 l-33 -83 -51 8 c-70 11 -163 6 -213 -11 l-42 -15 -22 42 c-81
153 -154 350 -189 508 -26 119 -37 385 -20 485 49 284 163 403 426 444 77 11
236 4 332 -16z m-1647 -867 c53 -233 113 -356 230 -477 104 -108 338 -248 568
-341 l83 -33 -8 -51 c-11 -70 -6 -163 11 -213 l15 -42 -87 -44 c-185 -92 -397
-161 -580 -187 -125 -17 -367 -7 -467 21 -248 68 -347 217 -348 525 0 145 15
233 65 373 55 158 143 307 257 440 71 82 195 184 215 176 7 -3 27 -66 46 -147z
m2726 -588 c170 -30 273 -83 344 -177 48 -64 76 -151 91 -278 39 -333 -143
-762 -428 -1007 -79 -68 -95 -78 -110 -69 -5 4 -27 77 -47 162 -58 238 -142
396 -269 504 -112 95 -353 231 -535 301 l-73 29 8 50 c11 71 6 164 -11 214
l-15 42 42 22 c198 103 392 170 587 203 94 16 337 18 416 4z m-1316 -177 c179
-89 178 -354 -3 -446 -153 -78 -330 6 -366 174 -28 131 53 260 187 296 60 17
113 10 182 -24z m110 -734 c68 -144 121 -295 152 -434 19 -83 22 -130 23 -294
0 -174 -3 -204 -23 -280 -62 -227 -179 -321 -438 -351 -279 -33 -619 85 -885
306 -86 73 -201 208 -193 228 2 7 57 26 122 41 164 39 236 63 322 107 88 45
175 115 236 188 87 105 210 324 285 509 l33 83 51 -8 c69 -11 163 -6 210 11
22 8 41 15 43 15 2 1 30 -54 62 -121z"/>
</g>
</svg>
