<?xml version="1.0" standalone="no"?>
<!DOCTYPE svg PUBLIC "-//W3C//DTD SVG 20010904//EN"
 "http://www.w3.org/TR/2001/REC-SVG-20010904/DTD/svg10.dtd">
<svg version="1.0" xmlns="http://www.w3.org/2000/svg"
 width="512.000000pt" height="512.000000pt" viewBox="0 0 512.000000 512.000000"
 preserveAspectRatio="xMidYMid meet">

<g transform="translate(0.000000,512.000000) scale(0.100000,-0.100000)"
fill="#000000" stroke="none">
<path d="M3145 5101 c-46 -28 -349 -335 -520 -526 -448 -501 -778 -972 -1013
-1443 l-86 -174 -30 7 c-94 20 -164 25 -236 16 -100 -13 -171 -40 -267 -103
-130 -85 -171 -100 -273 -100 -102 0 -143 15 -273 100 -94 62 -167 90 -262
102 -106 13 -155 -5 -175 -66 -15 -44 1 -96 36 -118 13 -9 55 -20 93 -25 79
-10 136 -33 218 -89 87 -59 158 -92 232 -108 175 -37 331 -3 492 107 98 66
160 88 251 89 92 0 147 -18 234 -77 183 -124 347 -160 527 -113 79 20 118 39
245 121 71 47 114 61 224 74 97 12 138 113 72 179 -32 31 -65 37 -149 26 -112
-15 -181 -43 -295 -120 -30 -20 -69 -44 -86 -53 -50 -26 -151 -38 -219 -27
-68 11 -165 57 -165 77 0 26 168 351 262 506 263 439 700 988 1107 1392 l111
110 61 -60 c124 -121 393 -412 513 -555 617 -731 995 -1418 1101 -2000 103
-570 -69 -1132 -471 -1534 -452 -452 -1112 -613 -1727 -420 -165 52 -416 189
-549 300 -26 21 -46 43 -45 49 1 5 29 19 62 30 34 12 107 51 164 88 102 66
136 78 253 92 97 12 138 113 72 179 -32 31 -65 37 -149 26 -115 -15 -170 -38
-311 -130 -91 -60 -135 -73 -234 -72 -85 0 -151 21 -221 69 -133 92 -197 119
-309 134 -149 19 -281 -14 -417 -103 -130 -85 -171 -100 -273 -100 -102 0
-143 15 -273 100 -94 62 -167 90 -262 102 -106 13 -155 -5 -175 -66 -15 -44 1
-96 36 -118 13 -9 55 -20 93 -25 79 -10 136 -33 218 -89 87 -59 158 -92 232
-108 175 -37 331 -3 492 107 98 66 161 88 250 89 94 0 137 -15 248 -84 47 -30
104 -63 126 -74 22 -11 66 -50 98 -86 130 -147 353 -310 562 -411 484 -235
1028 -256 1534 -61 488 188 899 599 1087 1087 80 207 121 410 131 639 18 441
-140 967 -453 1511 -209 365 -489 751 -814 1124 -139 159 -565 591 -602 611
-36 19 -67 18 -103 -5z"/>
<path d="M85 2343 c-62 -16 -95 -77 -75 -137 15 -46 47 -65 129 -75 79 -10
136 -33 218 -89 87 -59 158 -92 232 -108 174 -37 331 -3 491 106 85 58 141 81
221 91 38 5 80 16 93 25 35 22 51 74 36 118 -20 61 -69 79 -175 66 -95 -12
-168 -40 -262 -102 -130 -85 -171 -100 -273 -100 -99 0 -150 18 -257 90 -78
52 -128 77 -193 95 -62 17 -155 27 -185 20z"/>
<path d="M2505 2344 c-122 -16 -194 -45 -331 -134 -81 -53 -113 -64 -207 -76
-95 -11 -146 -74 -118 -147 25 -66 109 -82 246 -47 80 20 98 29 227 112 92 59
149 78 237 78 95 0 133 -13 258 -92 127 -79 204 -107 313 -115 144 -11 264 25
402 119 81 54 162 87 216 88 87 0 142 43 142 111 0 80 -64 114 -185 99 -98
-12 -163 -39 -275 -111 -118 -77 -156 -90 -250 -91 -99 -1 -143 12 -234 72
-102 67 -180 105 -241 118 -60 13 -159 21 -200 16z"/>
<path d="M85 1703 c-62 -16 -95 -77 -75 -137 15 -46 47 -65 129 -75 80 -10
136 -33 221 -91 177 -120 390 -157 443 -77 30 46 25 100 -11 137 -24 23 -40
29 -98 35 -78 8 -146 35 -231 93 -78 52 -128 77 -193 95 -62 17 -155 27 -185
20z"/>
<path d="M1294 1696 c-41 -18 -64 -52 -64 -96 0 -66 56 -110 140 -110 53 0
123 -27 196 -77 183 -125 347 -160 529 -113 80 20 98 29 227 112 93 60 149 78
244 78 90 0 140 -18 277 -99 116 -68 195 -97 289 -107 122 -12 174 26 169 124
0 13 -14 36 -29 52 -23 22 -40 29 -93 34 -93 10 -142 29 -253 96 -121 73 -186
98 -285 110 -166 22 -286 -12 -467 -130 -91 -60 -134 -73 -234 -73 -88 1 -148
21 -236 79 -32 22 -79 52 -104 66 -89 51 -248 79 -306 54z"/>
</g>
</svg>
